<svg width="46" height="65" viewBox="0 0 46 65" fill="none" xmlns="http://www.w3.org/2000/svg">
<path d="M22.9719 65L4.18634 59.7793L0 12.7742H46.0001L41.8093 59.7722L22.9719 65Z" fill="#4353AD"/>
<path d="M38.2216 56.7795L41.8025 16.6178H22.9999V61.004L38.2216 56.7795" fill="#485FB5"/>
<path d="M23 49.0235L22.9748 49.03L16.5614 47.2964L16.1513 42.6986H10.3704L11.1772 51.7505L22.9735 55.0288L23 55.0215V49.0235ZM8.55994 22.3827L9.0834 28.1476H23V22.3827H8.55994ZM9.59707 34.051L10.1131 39.816H23V34.051H9.59707" fill="#EDEDED"/>
<path d="M27.5654 3.29316e-05H34.5403V2.53902H30.4824V3.04706H34.5403V8.88669H27.5654V6.22049H31.6236V5.71285H27.5656V3.29316e-05H27.5654ZM19.1956 3.29316e-05H26.1703V2.53902H22.1124V3.04706H26.1703V8.88669H19.1958V6.22049H23.2538V5.71285H19.1955V3.29316e-05H19.1956ZM10.8259 3.29316e-05H17.8005V2.91985H13.7427V5.84006H17.8009V8.75988H10.8259V3.29316e-05Z" fill="#100F0D"/>
<path d="M36.3662 34.0511L37.4057 22.3829H22.9802V28.1477H31.0947L30.5708 34.0511H22.9802V39.8161H30.0715L29.4026 47.2931L22.98 49.0283V55.0261L34.7856 51.7506L34.872 50.7768L36.2257 35.5992L36.3662 34.0511Z" fill="white"/>
</svg>
