<svg width="160" height="45" viewBox="0 0 160 45" fill="none" xmlns="http://www.w3.org/2000/svg">
<path fill-rule="evenodd" clip-rule="evenodd" d="M148.973 18.5732C148.829 18.6017 148.685 18.9146 148.685 19.0852C148.656 20.2229 148.627 23.238 148.627 25.2858C148.627 25.3427 148.713 25.4564 148.8 25.4564C149.232 25.4848 150.271 25.5133 151.165 25.5133C152.405 25.5133 153.126 25.3427 153.529 25.1721C154.567 24.6601 155.058 23.5507 155.058 22.3276C155.058 19.5688 153.097 18.5163 150.184 18.5163C149.982 18.488 149.406 18.488 148.973 18.5732ZM156.413 31.2873C156.413 28.4715 154.308 26.907 150.501 26.907C150.328 26.907 149.117 26.8785 148.829 26.9354C148.742 26.9639 148.627 27.0209 148.627 27.1063C148.627 29.1256 148.598 32.3398 148.685 33.5911C148.742 34.1315 149.146 34.8996 149.636 35.1271C150.155 35.4116 151.338 35.4683 152.145 35.4683C154.423 35.4683 156.413 34.217 156.413 31.2873ZM143.09 17.009C143.378 17.009 144.244 17.0941 146.464 17.0941C148.569 17.0941 150.242 17.0374 152.289 17.0374C154.798 17.0374 158.259 17.9191 158.259 21.6165C158.259 23.437 156.961 24.8877 155.26 25.5987C155.173 25.6272 155.173 25.6839 155.26 25.7124C157.682 26.3098 159.816 27.7889 159.816 30.5762C159.816 33.3068 158.086 35.0417 155.577 36.1226C154.048 36.7768 152.145 37.0043 150.213 37.0043C148.742 37.0043 144.792 36.8337 142.6 36.8907C142.369 36.8052 142.802 35.7812 143.003 35.6106C143.523 35.5822 143.926 35.5537 144.474 35.3831C145.253 35.184 145.339 34.9565 145.455 33.7904C145.512 32.7948 145.512 29.2677 145.512 26.7649C145.512 23.3231 145.541 20.9909 145.512 19.8532C145.484 18.9716 145.166 18.6871 144.532 18.5163C144.042 18.4311 143.234 18.3172 142.571 18.232C142.427 18.0897 142.917 17.1226 143.09 17.009ZM126.45 34.7005C127.143 35.2407 128.498 35.4683 129.709 35.4683C131.267 35.4683 132.824 35.184 134.323 33.8471C135.852 32.4819 136.919 30.3771 136.919 27.0209C136.919 23.8067 135.679 21.1899 133.141 19.6542C131.699 18.7723 129.853 18.4026 127.719 18.4026C127.085 18.4026 126.479 18.4311 126.104 18.6017C126.018 18.6586 125.816 18.9146 125.816 19.0567C125.758 19.6257 125.758 24.0057 125.758 26.5658C125.758 29.211 125.758 32.9085 125.816 33.3351C125.816 33.7619 126.018 34.416 126.45 34.7005ZM119.904 17.009C120.452 17.009 122.557 17.0941 123.567 17.0941C125.383 17.0941 126.681 17.009 130.113 17.009C132.997 17.009 135.419 17.777 137.149 19.2273C139.254 21.0194 140.35 23.494 140.35 26.5089C140.35 30.8037 138.36 33.2784 136.371 34.7005C134.381 36.1511 131.785 37.0043 128.094 37.0043C126.133 37.0043 122.759 36.9473 119.962 36.9189H119.933C119.789 36.6631 120.164 35.6676 120.394 35.6391C121.144 35.5537 121.346 35.5252 121.721 35.3831C122.326 35.1556 122.442 34.8426 122.529 33.7904C122.615 31.8278 122.586 29.467 122.586 26.7933C122.586 24.8877 122.615 21.1615 122.557 19.9669C122.471 18.9716 122.038 18.7156 121.173 18.5447C120.741 18.4596 120.164 18.3457 119.356 18.2605C119.241 18.0612 119.76 17.1795 119.904 17.009Z" fill="#8E714E"/>
<path fill-rule="evenodd" clip-rule="evenodd" d="M85.0103 35.8097C84.2894 35.7243 83.7703 35.6106 83.1357 35.3262C83.0493 35.2692 82.905 34.985 82.905 34.8711C82.8472 33.8755 82.8472 31.0313 82.8472 29.1256C82.8472 27.5896 82.5879 26.2528 81.9245 25.3142C81.1458 24.2333 80.0212 23.6076 78.5793 23.6076C77.3104 23.6076 75.6089 24.4611 74.1959 25.6557C74.167 25.6839 73.9363 25.8832 73.9652 25.5703C73.9652 25.2573 74.0229 24.6317 74.0518 24.2051C74.0807 23.8067 73.85 23.6076 73.85 23.6076C72.927 24.0627 70.3316 24.6601 69.38 24.7453C68.6879 24.8877 68.515 25.5418 69.2359 25.7693H69.2648C70.0432 25.9968 70.5623 26.2528 70.966 26.5089C71.2544 26.7364 71.2255 27.0493 71.2255 27.3053C71.2544 29.4386 71.2544 32.7094 71.168 34.5015C71.1392 35.2125 70.9373 35.4683 70.4182 35.5822L70.4757 35.5537C70.0721 35.6391 69.7548 35.7243 69.2645 35.7812C69.0915 35.9518 69.0915 36.8622 69.2645 37.0613C69.5818 37.0613 71.2544 36.9758 72.6388 36.9758C74.5421 36.9758 75.5226 37.0613 76.0128 37.0613C76.2146 36.8337 76.2724 35.9803 76.1569 35.7812C75.6089 35.7527 75.2053 35.6961 74.8305 35.5822C74.3114 35.4683 74.167 35.2125 74.1382 34.6151C74.0807 33.1075 74.0807 29.9221 74.0807 27.7604C74.0807 27.163 74.2536 26.8785 74.4266 26.7079C75.0898 26.1392 76.1569 25.7408 77.1085 25.7408C78.0313 25.7408 78.637 26.0253 79.0984 26.3952C79.7328 26.907 79.9346 27.6465 80.0212 28.187C80.1653 29.4101 80.1078 31.8278 80.1078 33.9325C80.1078 35.0702 80.0212 35.3546 79.5887 35.4967C79.3869 35.5822 78.8677 35.6961 78.262 35.7527C78.0602 35.9518 78.1179 36.8337 78.262 37.0328C79.0984 37.0328 80.0789 36.9474 81.5208 36.9474C83.3086 36.9474 84.4623 37.0328 84.9237 37.0328C85.0678 36.8622 85.1255 36.0372 85.0101 35.8097H85.0103ZM92.9985 24.9446C91.47 24.9446 90.5183 26.1107 90.5183 27.931C90.5183 29.7797 91.3545 31.9129 93.7194 31.9129C94.123 31.9129 94.8729 31.7423 95.2188 31.3442C95.7668 30.8322 96.1418 29.8082 96.1418 28.7275C96.1418 26.3667 94.9592 24.9446 92.9985 24.9446ZM92.7964 37.5163C92.2198 37.5163 91.8159 37.6869 91.5566 37.8293C90.3451 38.597 89.7974 39.3366 89.7974 40.2185C89.7974 41.0432 90.1144 41.6973 90.8068 42.2663C91.6429 42.9773 92.7964 43.3188 94.2671 43.3188C97.2086 43.3188 98.5065 41.7543 98.5065 40.2185C98.5065 39.1375 97.9585 38.4264 96.8339 38.0283C96.0263 37.6869 94.5556 37.5163 92.7964 37.5163ZM92.9985 44.9115C91.2393 44.9115 89.9703 44.5416 88.8746 43.7169C87.8075 42.9204 87.3461 41.7258 87.3461 40.9011C87.3461 40.6735 87.4039 40.0476 87.923 39.4789C88.24 39.1375 88.9321 38.4834 90.5761 37.3742C90.6335 37.3457 90.6624 37.3173 90.6624 37.2603C90.6624 37.2034 90.6047 37.1464 90.5472 37.1182C89.1917 36.6062 88.788 35.7812 88.6725 35.3262V35.2692C88.6439 35.0986 88.5862 34.928 88.8457 34.7572C89.0476 34.6151 89.336 34.4445 89.653 34.2455C90.1433 33.961 90.6624 33.648 90.9797 33.392C91.0375 33.3351 91.0374 33.2784 91.0374 33.2214C91.0374 33.1645 90.9797 33.1075 90.922 33.0793C88.9035 32.4249 87.8941 30.9458 87.8941 28.7275C87.8941 27.2769 88.5573 25.9684 89.7396 25.1437C90.5472 24.5178 92.5657 23.75 93.8924 23.75H93.979C95.3342 23.7782 96.0841 24.0627 97.1509 24.4326C97.7278 24.6317 98.2758 24.7168 99.0256 24.7168C100.15 24.7168 100.64 24.3756 101.044 23.9775C101.073 24.0342 101.131 24.1766 101.16 24.5462C101.188 24.9161 101.073 25.4564 100.784 25.8547C100.554 26.1674 100.035 26.3952 99.5158 26.3952H99.3715C98.8524 26.3383 98.6217 26.2813 98.6217 26.2813L98.5065 26.3383C98.4776 26.3952 98.5064 26.4519 98.5353 26.5373L98.5642 26.5943C98.6217 26.8503 98.7371 27.618 98.7371 27.8174C98.7371 30.1496 97.7855 31.1734 96.7761 31.9414C95.7956 32.6525 94.671 33.1075 93.4021 33.2214C93.3732 33.2214 93.258 33.2214 92.9985 33.2499C92.8541 33.2499 92.6523 33.2784 92.6234 33.2784H92.5945C92.3639 33.3351 91.7873 33.6195 91.7873 34.1031C91.7873 34.5297 92.0468 35.0417 93.2866 35.1271C93.5462 35.1556 93.8057 35.1556 94.0942 35.1841C95.7379 35.2977 97.7855 35.4401 98.7371 35.7527C100.064 36.2363 100.9 37.4024 100.9 38.7963C100.9 40.9011 99.3715 42.8637 96.8339 44.0865C95.5938 44.627 94.3537 44.9115 92.9985 44.9115ZM109.436 25.0867C108.83 25.0867 108.282 25.2288 107.879 25.5133C106.754 26.1959 106.177 27.5614 106.177 29.5522C106.177 33.2784 108.081 35.8951 110.791 35.8951C111.599 35.8951 112.233 35.6676 112.781 35.2125C113.617 34.5297 114.05 33.1645 114.05 31.2588C114.05 27.5614 112.176 25.0867 109.436 25.0867ZM109.955 37.2603C105.053 37.2603 103.294 33.705 103.294 30.3772C103.294 28.0449 104.245 26.2528 106.148 24.9728C107.504 24.1481 109.119 23.6931 110.561 23.6931C114.309 23.6931 116.934 26.3383 116.934 30.1496C116.934 32.7379 115.896 34.7857 113.906 36.0372C112.954 36.6629 111.31 37.2603 109.955 37.2603H109.955ZM58.5658 25.0867C57.9601 25.0867 57.4124 25.2288 57.0084 25.5133C55.8839 26.1959 55.307 27.5614 55.307 29.5522C55.307 33.2784 57.2103 35.8951 59.9211 35.8951C60.7286 35.8951 61.363 35.6676 61.911 35.2125C62.7471 34.5297 63.1799 33.1645 63.1799 31.2588C63.1799 27.5614 61.3341 25.0867 58.5658 25.0867ZM59.0849 37.2603C54.1824 37.2603 52.4232 33.705 52.4232 30.3772C52.4232 28.0449 53.3749 26.2528 55.2781 24.9728C56.6337 24.1481 58.2485 23.6931 59.6904 23.6931C63.4395 23.6931 66.0637 26.3383 66.0637 30.1496C66.0637 32.7379 65.0254 34.7857 63.0356 36.0372C62.1128 36.6629 60.4691 37.2603 59.0849 37.2603ZM26.1231 36.9758C26.0653 36.8907 26.0076 36.6347 26.0364 36.3217C26.0364 36.0942 26.0942 35.9518 26.1231 35.8951C26.7285 35.8097 27.0458 35.7243 27.3917 35.6391C27.9686 35.4967 28.1993 35.1841 28.2281 34.473C28.3148 32.7664 28.3148 29.5237 28.2859 27.2769V27.2199C28.2859 26.9639 28.2859 26.651 27.9686 26.4234C27.5072 26.1392 26.9592 25.8832 26.2383 25.6839C25.9787 25.5987 25.8058 25.4564 25.8346 25.2858C25.8346 25.1152 26.0076 24.9161 26.3826 24.8592C27.3343 24.7738 29.8141 24.1766 30.7946 23.75C30.8524 23.8067 30.939 23.9775 30.939 24.2051L30.9101 24.5178C30.8812 24.8307 30.8524 25.2006 30.8524 25.5703C30.8524 25.6839 30.9678 25.7693 31.0831 25.7693C31.1408 25.7693 31.1985 25.7408 31.2563 25.7124C33.1018 24.2902 34.7744 23.7782 35.6394 23.7782C37.0527 23.7782 38.1484 24.4326 38.9848 25.7978C39.0423 25.8832 39.1001 25.9114 39.1867 25.9114C39.2444 25.9114 39.3307 25.8832 39.3596 25.8263C41.0611 24.5462 42.7625 23.7782 43.8871 23.7782C46.5691 23.7782 48.1553 25.7408 48.1553 29.0686C48.1553 30.0072 48.1553 31.2303 48.1264 32.3398C48.1264 33.3351 48.0976 34.2455 48.0976 34.8996C48.0976 35.0417 48.2994 35.4967 48.6167 35.5822C49.0203 35.7812 49.5683 35.8666 50.2893 35.9803H50.3181C50.3759 36.1793 50.2604 36.9189 50.1452 37.0613C49.972 37.0613 49.7124 37.0613 49.4242 37.0328C48.8762 37.0043 48.0976 36.9758 47.2325 36.9758C45.4445 36.9758 44.5217 37.0043 43.6275 37.0613C43.5701 36.8337 43.5412 36.1511 43.6275 35.9803C44.1467 35.8951 44.4062 35.8097 44.7235 35.7243C45.3004 35.5537 45.4445 35.2977 45.4733 34.5581C45.4733 34.0179 45.5885 29.4101 45.4156 28.3006C45.2426 27.163 44.3774 25.8263 42.4741 25.8263C41.7531 25.8263 40.6285 26.1107 39.5326 26.9354C39.4751 26.9924 39.4174 27.1345 39.4174 27.2199V27.2484C39.5326 27.8456 39.5326 28.5284 39.5326 29.5807V31.4294C39.5326 32.7094 39.5037 33.904 39.5326 34.8141C39.5326 35.4401 39.9076 35.5822 40.2249 35.6961C40.3979 35.7243 40.5131 35.7527 40.6574 35.7812C40.917 35.8382 41.1765 35.8951 41.5802 35.9803C41.6379 36.0942 41.6379 36.4638 41.5513 36.7768C41.5224 36.9474 41.4647 37.0328 41.4361 37.0613C40.4556 37.0328 39.4462 37.0043 37.9755 37.0043C37.543 37.0043 36.7931 37.0328 36.1585 37.0328C35.6394 37.0328 35.1492 37.0613 34.861 37.0613C34.8321 37.0043 34.7744 36.8052 34.7744 36.4923C34.7744 36.2363 34.8321 36.0372 34.8899 35.9803C35.0339 35.9518 35.1492 35.9236 35.2935 35.9236C35.6394 35.8666 35.9278 35.8097 36.2163 35.7527C36.7065 35.6106 36.8795 35.3546 36.9083 34.729C36.995 33.3069 37.0813 29.2395 36.8795 28.2155C36.5336 26.5658 35.5819 25.7408 34.0534 25.7408C33.1595 25.7408 32.0347 26.1674 31.1119 26.8503C30.9678 26.9639 30.8524 27.2484 30.8524 27.5044V29.1825C30.8524 31.2303 30.8524 33.7904 30.8812 34.8996C30.9101 35.2407 31.0253 35.6391 31.6888 35.7812C31.8329 35.8097 32.0636 35.8666 32.352 35.8951L32.8711 35.9803C32.9289 36.1511 32.9 36.8337 32.7845 37.0613C32.4961 37.0613 32.1502 37.0328 31.7463 37.0328C31.1408 37.0043 30.3621 36.9758 29.4971 36.9758C28.4877 36.9758 27.7668 37.0043 27.1899 37.0328C26.7863 36.9758 26.469 36.9758 26.1231 36.9758Z" fill="#442D22"/>
<path fill-rule="evenodd" clip-rule="evenodd" d="M10.9541 43.8023L9.77175 43.4039C9.77175 43.4039 9.9161 37.4594 7.75327 37.0328C6.31138 35.3831 7.98396 -32.9369 13.1746 36.8053C13.1746 36.8053 11.3869 37.6869 11.0696 39.1945C10.7234 40.6736 10.9541 43.8023 10.9541 43.8023Z" fill="white"/>
<path fill-rule="evenodd" clip-rule="evenodd" d="M10.9541 43.8023L9.77175 43.4039C9.77175 43.4039 9.9161 37.4594 7.75327 37.0328C6.31138 35.3831 7.98396 -32.9369 13.1746 36.8053C13.1746 36.8053 11.3869 37.6869 11.0696 39.1945C10.7234 40.6736 10.9541 43.8023 10.9541 43.8023Z" fill="#A6A385"/>
<path fill-rule="evenodd" clip-rule="evenodd" d="M11.5887 38.0568C11.5887 38.0568 21.9415 31.3442 19.5191 17.3785C17.1833 7.22453 11.6751 3.89672 11.0696 2.61669C10.4064 1.70657 9.77179 0.113848 9.77179 0.113848L10.2046 28.3575C10.2046 28.386 9.31041 37.0043 11.5887 38.0568Z" fill="white"/>
<path fill-rule="evenodd" clip-rule="evenodd" d="M11.5887 38.0568C11.5887 38.0568 21.9415 31.3442 19.5191 17.3785C17.1833 7.22453 11.6751 3.89672 11.0696 2.61669C10.4064 1.70657 9.77179 0.113848 9.77179 0.113848L10.2046 28.3575C10.2046 28.386 9.31041 37.0043 11.5887 38.0568Z" fill="#499D4A"/>
<path fill-rule="evenodd" clip-rule="evenodd" d="M9.16628 38.4264C9.16628 38.4264 -0.552162 31.8844 0.0247011 20.3652C0.572424 8.84578 7.43596 3.1857 8.76237 2.16168C9.62767 1.25155 9.65654 0.910125 9.71428 0C10.3197 1.28003 10.2045 19.1422 10.2909 21.2469C10.5504 29.3531 9.82949 36.8907 9.16628 38.4264Z" fill="white"/>
<path fill-rule="evenodd" clip-rule="evenodd" d="M9.16628 38.4264C9.16628 38.4264 -0.552162 31.8844 0.0247011 20.3652C0.572424 8.84578 7.43596 3.1857 8.76237 2.16168C9.62767 1.25155 9.65654 0.910125 9.71428 0C10.3197 1.28003 10.2045 19.1422 10.2909 21.2469C10.5504 29.3531 9.82949 36.8907 9.16628 38.4264Z" fill="#58AA50"/>
</svg>
